<?xml version="1.0"?>
<svg width="427.3" height="100.4" xmlns="http://www.w3.org/2000/svg" xmlns:svg="http://www.w3.org/2000/svg">
 <g>
  <title>Layer 1</title>
  <path id="svg_1" d="m101.987,47.994c0,-1.084 -0.57,-2.08 -1.506,-2.617l-24.937,-14.352c-0.422,-0.248 -0.895,-0.377 -1.373,-0.396l-0.258,0c-0.477,0.019 -0.949,0.148 -1.377,0.396l-24.938,14.352c-0.929,0.537 -1.508,1.533 -1.508,2.617l0.055,38.644c0,0.538 0.279,1.038 0.752,1.301c0.463,0.278 1.035,0.278 1.496,0l14.821,-8.485c0.937,-0.558 1.507,-1.539 1.507,-2.613l0,-18.057c0,-1.076 0.571,-2.071 1.504,-2.606l6.311,-3.636c0.47,-0.271 0.984,-0.404 1.51,-0.404c0.513,0 1.041,0.133 1.498,0.404l6.308,3.636c0.934,0.535 1.506,1.53 1.506,2.606l0,18.056c0,1.074 0.578,2.062 1.51,2.613l14.816,8.485c0.465,0.278 1.045,0.278 1.506,0c0.459,-0.263 0.748,-0.763 0.748,-1.301l0.049,-38.643z" fill="#064949" clip-rule="evenodd" fill-rule="evenodd"/>
  <path id="svg_2" d="m226.147,-0.129c-0.467,-0.26 -1.037,-0.254 -1.498,0.016c-0.46,0.271 -0.743,0.765 -0.743,1.299l0,38.271c0,0.376 -0.201,0.724 -0.525,0.913c-0.326,0.188 -0.729,0.188 -1.056,0l-6.246,-3.599c-0.932,-0.537 -2.077,-0.536 -3.01,0.001l-24.947,14.398c-0.933,0.537 -1.506,1.532 -1.506,2.607l0,28.801c0,1.076 0.573,2.07 1.505,2.609l24.946,14.408c0.934,0.539 2.081,0.539 3.014,0l24.95,-14.408c0.933,-0.539 1.506,-1.533 1.506,-2.609l0,-71.792c0,-1.092 -0.591,-2.099 -1.545,-2.631l-14.845,-8.284zm-2.314,73.244c0,0.27 -0.145,0.519 -0.378,0.651l-8.564,4.938c-0.233,0.135 -0.521,0.135 -0.752,0l-8.566,-4.938c-0.232,-0.133 -0.377,-0.382 -0.377,-0.651c0,-0.269 0,-6.594 0,-9.891c0,-0.269 0.145,-0.517 0.376,-0.651l8.566,-4.947c0.232,-0.135 0.52,-0.135 0.754,0l8.564,4.947c0.232,0.135 0.377,0.383 0.377,0.651l0,9.891z" fill="#095454" clip-rule="evenodd" fill-rule="evenodd"/>
  <path id="svg_3" d="m311.4,58.966c0.928,-0.539 1.499,-1.531 1.499,-2.604l0,-6.979c0,-1.073 -0.571,-2.066 -1.5,-2.605l-24.787,-14.392c-0.934,-0.542 -2.084,-0.543 -3.02,-0.004l-24.938,14.397c-0.933,0.539 -1.506,1.533 -1.506,2.609l0,28.793c0,1.083 0.58,2.081 1.521,2.616l24.783,14.122c0.914,0.522 2.034,0.527 2.954,0.018l14.989,-8.332c0.477,-0.266 0.772,-0.765 0.774,-1.308c0.004,-0.543 -0.285,-1.046 -0.755,-1.315l-25.094,-14.406c-0.47,-0.268 -0.758,-0.767 -0.758,-1.306l0,-9.024c0,-0.538 0.287,-1.036 0.755,-1.304l7.811,-4.504c0.464,-0.268 1.039,-0.268 1.503,0l7.815,4.504c0.467,0.268 0.754,0.766 0.754,1.304l0,7.101c0,0.538 0.288,1.036 0.755,1.306c0.467,0.269 1.042,0.267 1.508,-0.003l14.937,-8.684z" fill="#80bd01" clip-rule="evenodd" fill-rule="evenodd"/>
  <path id="svg_4" d="m142.35,34.23c0.932,-0.538 2.08,-0.538 3.012,0l24.943,14.395c0.934,0.537 1.508,1.532 1.508,2.609l0,28.811c0,1.077 -0.574,2.071 -1.506,2.61l-24.944,14.405c-0.933,0.538 -2.081,0.538 -3.014,0l-24.938,-14.405c-0.932,-0.539 -1.506,-1.533 -1.506,-2.61l0,-28.812c0,-1.076 0.574,-2.071 1.507,-2.608l24.938,-14.395z" fill="#80bd01" clip-rule="evenodd" fill-rule="evenodd"/>
  <polygon stroke-width="null" points="388.70001220703125,33.70001220703125 388.70001220703125,33.70001220703125 388.70001220703125,33.70001220703125 388.70001220703125,33.70001220703125 388.70001220703125,33.70001220703125 388.70001220703125,33.70001220703125 " strokeWidth="null" strokecolor="none" fill="#3170aa" edge="0" orient="x" sides="5" shape="regularPoly" id="svg_11" cy="34.700012" cx="384.700012"/>
  <polygon strokeWidth="null" strokecolor="none" fill="#80bd01" edge="0" orient="x" sides="5" shape="regularPoly" id="svg_12" cy="-17.299988" cx="380.700012"/>
  <polygon strokeWidth="null" strokecolor="none" fill="#80bd01" edge="0" orient="x" sides="5" shape="regularPoly" id="svg_14" cy="27.700012" cx="348.700012"/>
  <polygon stroke-width="null" points="360.70001220703125,26.70001220703125 360.70001220703125,26.70001220703125 360.70001220703125,26.70001220703125 360.70001220703125,26.70001220703125 360.70001220703125,26.70001220703125 360.70001220703125,26.70001220703125 " strokeWidth="null" strokecolor="none" fill="#3170aa" edge="0" orient="x" sides="5" shape="regularPoly" id="svg_15" cy="27.700012" cx="356.700012"/>
  <ellipse id="svg_26" cy="72.700012" cx="357.700012" stroke-linecap="null" stroke-linejoin="null" stroke-dasharray="null" stroke-width="null" fill="#ffffff"/>
  <polygon stroke-width="null" points="317.70001220703125,-214.29998779296875 317.70001220703125,-214.29998779296875 317.70001220703125,-214.29998779296875 317.70001220703125,-214.29998779296875 317.70001220703125,-214.29998779296875 317.70001220703125,-214.29998779296875 317.70001220703125,-214.29998779296875 " strokeWidth="null" strokecolor="none" fill="#3170aa" edge="0" orient="x" sides="6" shape="regularPoly" id="svg_42" cy="-214.299988" cx="317.700012"/>
  <polygon strokeWidth="null" strokecolor="none" fill="#3170aa" edge="0" orient="x" sides="6" shape="regularPoly" id="svg_44" cy="-92.299988" cx="318.700012"/>
  <polygon stroke-width="null" points="358.70001220703125,-166.29998779296875 358.70001220703125,-166.29998779296875 358.70001220703125,-166.29998779296875 358.70001220703125,-166.29998779296875 358.70001220703125,-166.29998779296875 358.70001220703125,-166.29998779296875 358.70001220703125,-166.29998779296875 " strokeWidth="null" strokecolor="none" fill="#3170aa" edge="0" orient="x" sides="6" shape="regularPoly" id="svg_46" cy="-166.299988" cx="358.700012"/>
  <path id="svg_47" d="m144.216652,55.418691c0.298531,-0.182924 0.666249,-0.182924 0.96478,0l7.989541,4.894397c0.299171,0.182584 0.48303,0.52089 0.48303,0.887078l0,9.795934c0,0.366187 -0.183859,0.704154 -0.48239,0.887418l-7.989862,4.897797c-0.298851,0.182924 -0.666569,0.182924 -0.96542,0l-7.98794,-4.897797c-0.298531,-0.183264 -0.48239,-0.52123 -0.48239,-0.887418l0,-9.796274c0,-0.365847 0.183859,-0.704154 0.48271,-0.886738l7.98794,-4.894397z" fill="#ffffff" clip-rule="evenodd" fill-rule="evenodd"/>
  <path id="svg_52" d="m351.664013,0.621595c0.94867,-0.453458 2.117204,-0.453458 3.065874,0l25.389144,12.132952c0.950706,0.452615 1.534973,1.29126 1.534973,2.199018l0,24.283603c0,0.907759 -0.584267,1.74556 -1.532937,2.199861l-25.390162,12.14138c-0.949688,0.453458 -2.118222,0.453458 -3.06791,0l-25.384054,-12.14138c-0.94867,-0.454301 -1.532937,-1.292102 -1.532937,-2.199861l0,-24.284446c0,-0.906916 0.584267,-1.74556 1.533955,-2.198176l25.384054,-12.132952z" fill="#095454" clip-rule="evenodd" fill-rule="evenodd"/>
  <path id="svg_57" d="m352.16401,47.615259c0.94867,-0.445006 2.11721,-0.445006 3.06588,0l25.38914,11.906745c0.95071,0.444172 1.53497,1.267186 1.53497,2.158022l0,23.83086c0,0.890836 -0.58426,1.713016 -1.53293,2.158846l-25.39017,11.915018c-0.94968,0.445006 -2.11822,0.445006 -3.06791,0l-25.38405,-11.915018c-0.94867,-0.44583 -1.53294,-1.26801 -1.53294,-2.158846l0,-23.831694c0,-0.890002 0.58427,-1.713016 1.53396,-2.157188l25.38405,-11.906745z" fill="#095454" clip-rule="evenodd" fill-rule="evenodd"/>
  <path id="svg_58" d="m353.662666,18.399679c0.331871,-0.157562 0.740659,-0.157562 1.07253,0l8.881824,4.215779c0.332585,0.157266 0.536975,0.448668 0.536975,0.764083l0,8.437708c0,0.315415 -0.20439,0.606522 -0.536261,0.764375l-8.882184,4.218708c-0.332224,0.157562 -0.741012,0.157562 -1.07324,0l-8.880043,-4.218708c-0.331871,-0.157853 -0.536265,-0.44896 -0.536265,-0.764375l0,-8.438003c0,-0.31512 0.204394,-0.606522 0.536622,-0.763788l8.880043,-4.215779z" fill="#ffffff" clip-rule="evenodd" fill-rule="evenodd"/>
  <path id="svg_59" d="m354.16267,64.89968c0.33187,-0.15756 0.74065,-0.15756 1.07253,0l8.88182,4.21578c0.33258,0.15726 0.53697,0.44867 0.53697,0.76408l0,8.43771c0,0.31541 -0.20439,0.60652 -0.53626,0.76437l-8.88218,4.21871c-0.33223,0.15756 -0.74101,0.15756 -1.07324,0l-8.88004,-4.21871c-0.33187,-0.15785 -0.53627,-0.44896 -0.53627,-0.76437l0,-8.438c0,-0.31512 0.2044,-0.60653 0.53662,-0.76379l8.88005,-4.21578z" fill="#ffffff" clip-rule="evenodd" fill-rule="evenodd"/>
 </g>
 <g>
  <title>Layer 2</title>
  <polygon stroke-width="null" points="-21.29998779296875,-151.9666544596354 -21.14324505902409,-151.5157256581354 -20.665950115438648,-151.50599912255205 -21.046372721956708,-151.21758326113542 -20.9081309581071,-150.76064313005213 -21.29998779296875,-151.03332112630207 -21.6918446278304,-150.76064313005213 -21.553602863980792,-151.21758326113542 -21.934025470498852,-151.50599912255205 -21.45673052691341,-151.5157256581354 -21.29998779296875,-151.9666544596354 -21.14324505902409,-151.5157256581354 " strokeWidth="null" strokecolor="none" fill="#ffffff" orient="point" r2="0.266667" r="0.666667" point="5" shape="star" id="svg_32" cy="-151.299988" cx="-21.299988"/>
  <polygon stroke-width="null" points="-8.29998779296875,-187.29998779296875 -8.29998779296875,-187.29998779296875 -8.29998779296875,-187.29998779296875 -8.29998779296875,-187.29998779296875 -8.29998779296875,-187.29998779296875 -8.29998779296875,-187.29998779296875 " strokeWidth="null" strokecolor="none" fill="#ffffff" edge="0" orient="x" sides="5" shape="regularPoly" id="svg_35" cy="-187.299988" cx="-8.299988"/>
  <polygon stroke-width="null" points="326.70001220703125,287.70001220703125 326.70001220703125,287.70001220703125 326.70001220703125,287.70001220703125 326.70001220703125,287.70001220703125 326.70001220703125,287.70001220703125 326.70001220703125,287.70001220703125 326.70001220703125,287.70001220703125 " strokeWidth="null" strokecolor="none" fill="#ffffff" edge="0" orient="x" sides="6" shape="regularPoly" id="svg_39" cy="287.700012" cx="326.700012"/>
  <polygon strokeWidth="null" strokecolor="none" fill="#ffffff" edge="0" orient="x" sides="6" shape="regularPoly" id="svg_40" cy="272.700012" cx="281.700012"/>
 </g>
</svg>